<svg width="353" height="67" viewBox="0 0 353 67" fill="none" xmlns="http://www.w3.org/2000/svg">
<path d="M29.7758 33.7144C29.6 34.1238 29.4506 34.5438 29.3285 34.972C29.1875 35.4111 28.9924 35.8323 28.8513 36.2744C28.7055 36.7918 28.5301 37.3004 28.326 37.7978C27.9538 38.6103 27.7557 39.4796 27.4255 40.301C27.2094 40.8118 27.1253 41.3764 26.8882 41.8812C26.522 42.6937 26.3179 43.563 25.9877 44.3844C25.7776 44.8982 25.6875 45.4598 25.4444 45.9586C25.2791 46.3109 25.1446 46.6767 25.0421 47.0519C24.9431 47.4343 24.742 47.7718 24.6459 48.1512C24.5201 48.6743 24.3473 49.1852 24.1296 49.6776C23.7574 50.4901 23.5593 51.3623 23.2291 52.1808C23.013 52.6946 22.929 53.2562 22.6918 53.761C22.3226 54.5735 22.1215 55.4427 21.7913 56.2642C21.5782 56.778 21.4911 57.3366 21.254 57.8444C20.8908 58.6569 20.6867 59.5261 20.3535 60.3476C20.1884 60.7389 20.1254 61.175 19.9423 61.5424C19.5611 62.3519 19.363 63.2212 19.0418 64.0486C18.7206 64.876 18.4114 65.817 18.0992 66.7131H47.5878C47.4707 66.3875 47.3597 66.0769 47.2516 65.7662C47.0775 65.2584 46.9514 64.7297 46.7263 64.2428C46.3511 63.4333 46.156 62.561 45.8258 61.7396C45.6097 61.2288 45.5256 60.6672 45.2885 60.1624C44.9223 59.3469 44.7212 58.4776 44.388 57.6562C44.2229 57.2649 44.1539 56.8317 43.9798 56.4464C43.8044 56.0366 43.654 55.6167 43.5295 55.1888C43.3914 54.7497 43.1963 54.3285 43.0522 53.8864C42.9089 53.3687 42.7345 52.86 42.5299 52.363C42.1547 51.5505 41.9596 50.6813 41.6294 49.8598C41.4133 49.349 41.3293 48.7844 41.0921 48.2796C40.7229 47.4671 40.5188 46.5979 40.1916 45.7764C39.9815 45.2626 39.8915 44.7011 39.6483 44.2022C39.4818 43.8504 39.3472 43.4846 39.2461 43.1089C39.1471 42.7266 38.9459 42.389 38.8499 42.0097C38.724 41.4865 38.5512 40.9757 38.3336 40.4833C37.9584 39.6708 37.7633 38.7985 37.4331 37.9801C37.22 37.4663 37.1329 36.9047 36.8988 36.3999C36.5296 35.5874 36.3285 34.7181 35.9983 33.8967C35.7852 33.3829 35.6981 32.8243 35.461 32.3165C35.0948 31.504 34.8937 30.6347 34.5605 29.8133C34.3984 29.422 34.3293 28.9858 34.1522 28.6184C33.9001 28.0748 33.759 27.4983 33.5519 26.9427C33.31 26.3574 33.1015 25.7591 32.9276 25.1504C32.8711 25.4078 32.7949 25.6604 32.6994 25.9061C32.3062 26.7097 32.1261 27.5879 31.7989 28.4093C31.5858 28.9201 31.4988 29.4817 31.2616 29.9865C30.8954 30.802 30.6943 31.6713 30.3611 32.4927C30.0159 32.896 29.9499 33.3291 29.7758 33.7144Z" fill="white"/>
<path d="M0.740469 4.15391C1.0181 4.44576 1.26642 4.76391 1.48188 5.10381C1.90512 5.68331 2.2143 6.32554 2.59251 6.92595C3.15487 7.84836 3.65622 8.80627 4.09335 9.79358C4.5346 10.7495 4.97284 11.7083 5.37507 12.6851C5.62721 13.2825 5.91237 13.9068 6.16451 14.5192C6.51871 15.3914 6.8579 16.2726 7.20309 17.1508C7.5663 18.0798 7.9235 19.0148 8.2927 19.9408C8.54485 20.5771 8.78798 21.2163 9.01611 21.8615C9.1692 22.2976 9.36431 22.7188 9.49938 23.1639C9.58943 23.4626 9.73952 23.7434 9.81756 24.06C9.8956 24.3767 10.0667 24.6754 10.1718 24.992C10.4539 25.8165 10.7721 26.623 11.0452 27.4534C11.1833 27.8895 11.3454 28.3227 11.5045 28.7618C11.6636 29.2009 11.8197 29.634 11.9878 30.0641C12.2279 30.6855 12.399 31.3337 12.6451 31.952C13.0204 32.8989 13.3475 33.8638 13.6537 34.8346C14.173 36.4596 14.7553 38.0636 15.2566 39.6946C15.4847 40.4354 15.7639 41.1643 16.004 41.9051C16.2442 42.6459 16.4813 43.3986 16.7154 44.1364C17.0726 45.2835 17.4869 46.4156 17.8411 47.5686C18.0122 48.1183 18.1983 48.6619 18.3694 49.2116C18.6335 50.0569 18.8917 50.9023 19.1558 51.7626C19.3179 51.2697 19.456 50.7917 19.6331 50.3198C19.9873 49.346 20.2904 48.3543 20.6476 47.3805C21.0048 46.4067 21.326 45.3761 21.6502 44.3724C21.8543 43.7392 22.0704 43.1059 22.3076 42.4846C22.5447 41.8633 22.7488 41.2599 22.9319 40.6445C23.115 40.0292 23.3522 39.372 23.5773 38.7447C23.7244 38.3295 23.8774 37.9083 24.0155 37.4901C24.1536 37.0719 24.2827 36.6328 24.4268 36.2176C24.6579 35.5545 24.871 34.8824 25.1171 34.2222C25.3633 33.5621 25.5584 32.884 25.7655 32.2089C25.9726 31.5338 26.2398 30.8826 26.4709 30.2195C26.702 29.5563 26.8911 28.9559 27.1283 28.3316C27.3654 27.7073 27.5785 27.077 27.7736 26.4378C28.2659 24.8247 28.8392 23.2386 29.3885 21.6584C29.7367 20.6428 30.0849 19.6242 30.4031 18.5996C30.4667 18.373 30.4551 18.1321 30.3701 17.9126C30.274 17.6348 30.187 17.351 30.0699 17.0762C29.8028 16.425 29.5836 15.7559 29.3285 15.1017C29.1454 14.6357 28.8933 14.2056 28.7282 13.7216C28.503 12.9958 28.2299 12.2848 27.9387 11.5888C27.6205 10.8361 27.3984 10.0535 27.0382 9.31266C26.8869 8.99558 26.7644 8.66568 26.672 8.32691C26.4992 7.75924 26.2772 7.20755 26.0086 6.67802C25.6234 5.83735 25.1178 5.05659 24.5078 4.36002C23.7618 3.46615 22.8963 2.67819 21.9354 2.01812C21.4751 1.69496 20.9857 1.41497 20.4735 1.18173C19.8326 0.879904 19.1629 0.642738 18.4744 0.473782C17.8852 0.316444 17.282 0.216404 16.6734 0.175071C11.3604 0.149182 6.02743 0.139225 0.674432 0.1452C0.498359 0.115327 0.317534 0.130751 0.149137 0.190006C0.149137 1.03835 0.176153 1.87773 0.149137 2.71412C0.129529 2.98323 0.1727 3.25321 0.275278 3.50296C0.377856 3.75272 0.537065 3.97551 0.740469 4.15391Z" fill="white"/>
<path d="M0.269279 57.5217C0.383343 58.4597 0.800578 59.299 1.16978 60.1414C1.58507 61.0333 2.13135 61.8588 2.79069 62.5908C3.37901 63.2604 4.02923 63.8734 4.73278 64.4219C5.17103 64.7625 7.06809 65.8498 7.68344 66.0171C8.29878 66.1843 8.8601 66.3845 9.46644 66.5249C10.0728 66.6653 10.7121 66.6653 11.3065 66.8714C12.1019 66.7818 12.8764 67.0058 13.6688 66.9998C14.1401 66.9998 14.5693 66.7668 15.0736 66.8415C14.8875 66.728 14.9835 66.5428 14.9265 66.3904C14.6804 65.8139 14.4492 65.2255 14.2541 64.631C14.017 63.9082 13.6988 63.2181 13.4917 62.4833C13.4046 62.1846 13.2456 61.868 13.1525 61.5453C13.0595 61.2227 12.9034 60.93 12.7923 60.6134C12.5131 59.8098 12.192 59.0212 11.8918 58.2237C11.7477 57.8413 11.6096 57.459 11.4716 57.0766C11.1894 56.294 10.9102 55.5084 10.6251 54.7258C10.43 54.1881 10.2199 53.6534 10.0248 53.1157C9.72458 52.3331 9.46344 51.5475 9.17828 50.7649C8.98317 50.2242 8.77305 49.6925 8.57794 49.1518C8.29278 48.3692 8.01663 47.5866 7.73147 46.8039C7.53636 46.2633 7.32624 45.7316 7.13113 45.1909C6.84597 44.4083 6.56981 43.6227 6.28465 42.84C6.08954 42.3024 5.87943 41.7677 5.68432 41.23C5.46219 40.6326 5.26708 40.0023 5.02695 39.4019C4.90988 39.1032 4.79582 38.8194 4.70577 38.5057C4.61572 38.1921 4.46263 37.8904 4.35157 37.5737C4.10243 36.8598 3.81127 36.1579 3.57714 35.435C3.47808 35.1363 3.34901 34.8376 3.25896 34.5388C3.16891 34.2401 3.00982 33.9235 2.90476 33.6069C2.67363 32.9049 2.43349 32.1969 2.15434 31.5159C1.75811 30.5212 1.41292 29.4846 1.0167 28.469C0.692517 27.6416 0.374338 26.8052 0.0291448 25.9658V55.7593C-0.0158194 56.057 -0.0087107 56.3602 0.0501566 56.6554C0.164221 56.9392 0.0621633 57.2678 0.269279 57.5217Z" fill="white"/>
<path d="M66.4653 22.4053C66.1892 22.704 66.1652 23.1222 66.0181 23.4806C65.8599 23.8359 65.7382 24.2062 65.6549 24.5859C65.5527 24.9638 65.4213 25.3333 65.2617 25.6911C64.7904 27.1339 64.2681 28.5587 63.7878 29.9985C63.5627 30.6676 63.2956 31.3188 63.0854 31.9909C62.8993 32.5883 62.7192 33.2037 62.4851 33.7832C62.251 34.3627 62.1009 34.9033 61.8848 35.4589C61.6686 36.0146 61.4915 36.5761 61.2844 37.1317C60.9843 37.9651 60.7681 38.8434 60.4229 39.6558C59.9727 40.7163 59.6845 41.8275 59.2583 42.8939C58.8321 43.9603 58.4899 45.1342 58.0756 46.2454C57.7544 47.1147 57.4993 48.0078 57.1751 48.8771C56.911 49.6119 56.6408 50.3408 56.4427 51.0935C56.1666 51.3922 56.1425 51.8104 55.9955 52.1689C55.8372 52.5241 55.7155 52.8944 55.6323 53.2741C55.5288 53.6517 55.3973 54.0211 55.239 54.3793C55.0323 55.1296 54.7858 55.8684 54.5006 56.5928C54.0474 57.6532 53.7802 58.7704 53.333 59.8308C52.9127 60.8166 52.6186 61.8561 52.2644 62.8657C51.8141 64.1472 51.3639 65.4287 50.9376 66.7281H66.6755C66.7085 66.2471 66.7415 22.686 66.7055 21.7989C66.7055 21.7989 66.6815 21.766 66.6664 21.7571C66.6004 21.7093 66.6484 21.8347 66.5944 21.7571C66.7175 22.0199 66.4053 22.1723 66.4653 22.4053Z" fill="white"/>
<path d="M32.9547 2.45732C33.6031 3.34025 34.2042 4.25657 34.7557 5.20248C35.1849 5.90146 35.5962 6.6124 35.9564 7.34424C36.4276 8.28817 36.9049 9.22911 37.3491 10.188C37.8684 11.3141 38.3727 12.4492 38.913 13.5634C39.0961 13.9488 39.2612 14.346 39.4293 14.7314C39.6308 15.1483 39.8063 15.5773 39.9546 16.0158C40.098 16.4556 40.2746 16.884 40.4829 17.2973C40.9001 18.1934 41.2573 19.0896 41.6055 20.0126C41.9537 20.9356 42.2809 21.8586 42.6381 22.7697C43.0944 23.9407 43.5206 25.1236 43.9739 26.2975C44.274 27.0562 44.5472 27.8209 44.8263 28.5856C44.9524 28.9351 45.0244 29.3055 45.1745 29.6431C45.6338 30.6766 45.925 31.7699 46.3242 32.8273C46.8074 34.0909 47.2247 35.3783 47.6359 36.6658C47.9901 37.78 48.3863 38.8792 48.7375 39.9904C49.0887 41.1016 49.4909 42.1262 49.7791 43.2255C49.9232 43.7781 50.1573 44.3098 50.3104 44.8624C50.5716 45.7944 50.9107 46.6965 51.1719 47.6285C51.231 47.9583 51.349 48.2749 51.5201 48.5634C51.4931 49.0742 51.8203 49.4894 51.8923 49.9734C51.9643 50.4573 52.2315 50.8844 52.2945 51.4669C52.6127 50.4871 52.8949 49.603 53.195 48.7218C53.3631 48.211 53.5492 47.7061 53.7053 47.1924C53.8854 46.5949 54.1045 45.9975 54.3057 45.4001C54.5068 44.8027 54.7049 44.1664 54.906 43.5481C55.2062 42.6519 55.4673 41.7558 55.7675 40.8418C56.0676 39.9277 56.4098 39.0226 56.668 38.0906C56.8481 37.4305 57.1392 36.8032 57.3313 36.146C57.7576 34.7032 58.3309 33.3112 58.7121 31.8535C58.9012 31.1396 59.1564 30.4376 59.4055 29.7386C59.7297 28.8326 60.0409 27.9225 60.339 27.0084C60.6392 26.0735 60.9724 25.1445 61.2395 24.1946C61.5877 22.9489 62.083 21.7451 62.4942 20.5144C62.9565 19.1463 63.3947 17.7663 63.851 16.3952C64.2742 15.1287 64.7125 13.8711 65.1387 12.6075C65.541 11.4127 65.9552 10.2178 66.3244 9.023C66.4309 8.58726 66.4309 8.13246 66.3244 7.69672C66.2196 7.26338 66.078 6.83968 65.9012 6.43018C65.6461 5.80944 65.3251 5.21761 64.9436 4.6648C64.5769 4.17637 64.1648 3.72333 63.7129 3.31163C62.9696 2.59196 62.1216 1.98777 61.1975 1.51936C60.5612 1.1639 59.8498 0.987658 59.2164 0.62323C58.6161 0.62323 58.0938 0.306595 57.4994 0.234905C57.1152 0.187111 56.716 0.106459 56.3288 0.0377551C55.9089 -0.00564365 55.486 -0.0116417 55.0651 0.0198324H31.1597V0.58141C31.3082 0.621828 31.4398 0.708757 31.5349 0.829341C32.0452 1.33885 32.5196 1.8828 32.9547 2.45732Z" fill="white"/>
<path d="M98.1841 24.0996C97.9277 23.3847 97.627 22.6863 97.2836 22.0086C97.0339 21.4968 96.7024 21.0287 96.3021 20.6226C95.9352 20.2702 95.4973 19.9994 95.0173 19.828C94.4663 19.6391 93.8934 19.5207 93.3124 19.4755V18.5913C93.4294 18.5913 93.6606 18.5764 93.9968 18.5465C94.333 18.5166 94.6121 18.5017 94.8162 18.5017C95.4765 18.5057 96.1356 18.5576 96.7883 18.657C97.5133 18.7725 98.2111 19.0185 98.8475 19.3829C99.5955 19.8254 100.256 20.4004 100.796 21.0796C101.501 21.9854 102.04 23.0076 102.389 24.0996L108.324 41.1261L113.063 27.1554L112.001 24.1145C111.749 23.4 111.454 22.7016 111.115 22.0235C110.862 21.5054 110.526 21.0321 110.119 20.6226C109.752 20.2702 109.314 19.9994 108.834 19.828C108.283 19.6388 107.71 19.5204 107.129 19.4755V18.5913C107.246 18.5913 107.474 18.5764 107.817 18.5465C108.159 18.5166 108.417 18.5017 108.636 18.5017C109.295 18.5058 109.953 18.5578 110.605 18.657C111.33 18.7725 112.028 19.0185 112.664 19.3829C113.412 19.8254 114.073 20.4004 114.612 21.0796C115.318 21.9854 115.857 23.0076 116.206 24.0996L122.141 41.1261L129.714 18.9587H131.617L121.477 48.4714H120.592L114.036 29.9185L107.66 48.4714H106.775L98.1841 24.0996Z" fill="white"/>
<path d="M159.473 48.0293C158.896 48.1859 158.299 48.2604 157.702 48.2504C157.115 48.2416 156.531 48.1826 155.955 48.0741C155.235 47.9376 154.545 47.6768 153.916 47.3035C153.144 46.8398 152.456 46.2512 151.878 45.562C151.134 44.6568 150.556 43.6272 150.173 42.5211L149.066 39.6564H136.666L133.124 48.0204H131.131L143.531 18.9348H144.86L154.604 42.5121C154.958 43.3366 155.288 44.0326 155.6 44.6031C155.867 45.1203 156.218 45.5898 156.639 45.9921C157.001 46.3281 157.421 46.5963 157.879 46.7837C158.39 46.9762 158.927 47.0949 159.473 47.1362V48.0293ZM137.332 37.894H148.18L142.879 25.1032L137.332 37.894Z" fill="white"/>
<path d="M170.495 18.9438C171.775 18.9518 173.054 19.0325 174.325 19.1858C175.674 19.3313 176.991 19.6882 178.227 20.2432C179.4 20.7734 180.429 21.5742 181.229 22.5792C182.039 23.5928 182.444 24.9519 182.444 26.6566C182.435 28.0054 181.949 29.308 181.073 30.3367C180.158 31.4658 178.696 32.3689 176.687 33.046C177.915 33.2186 179.114 33.5521 180.253 34.0377C181.097 34.4002 181.861 34.9239 182.502 35.5791C183.049 36.1606 183.452 36.8627 183.675 37.6283C183.901 38.4322 184.011 39.2639 184.002 40.0986C184.002 41.7415 183.624 43.0857 182.874 44.1282C182.132 45.1625 181.143 45.9962 179.995 46.5538C178.759 47.1476 177.436 47.5418 176.075 47.7217C174.667 47.9215 173.247 48.0213 171.825 48.0204H162.973V24.231C163.014 23.14 162.826 22.0524 162.42 21.0378C162.048 20.2283 161.202 19.825 159.872 19.825H158.971V18.9438H170.495ZM171.158 32.3859C172.035 32.3871 172.908 32.2603 173.749 32.0095C174.564 31.7738 175.33 31.3933 176.009 30.8863C176.671 30.3878 177.221 29.7569 177.624 29.0343C178.054 28.2365 178.269 27.3408 178.245 26.4355C178.273 25.4777 178.01 24.5337 177.492 23.7262C176.996 22.9822 176.347 22.351 175.589 21.8742C174.798 21.3808 173.929 21.0233 173.019 20.8168C171.546 20.455 170.016 20.388 168.517 20.6196C167.988 20.6893 167.464 20.7891 166.947 20.9183V32.3859H171.158ZM166.956 34.1483V45.8697C167.643 46.0784 168.346 46.2332 169.057 46.3327C169.753 46.4346 170.455 46.4865 171.158 46.488C173.844 46.488 175.918 45.9593 177.381 44.9019C178.843 43.8444 179.574 42.316 179.572 40.3167C179.572 38.3252 178.863 36.7978 177.447 35.7344C176.03 34.671 173.934 34.1423 171.158 34.1483H166.956Z" fill="white"/>
<path d="M189.765 18.9438H193.749V42.7422C193.707 43.8336 193.896 44.9215 194.304 45.9354C194.672 46.7439 195.521 47.1482 196.849 47.1482H197.75V48.0294H193.749C193.102 48.0422 192.455 47.976 191.825 47.8322C191.332 47.7167 190.894 47.4362 190.585 47.0377C190.241 46.5631 190.02 46.0109 189.943 45.4306C189.808 44.5409 189.749 43.6417 189.765 42.7422V18.9438Z" fill="white"/>
<path d="M226.521 19.825C224.831 19.7758 223.158 20.1715 221.67 20.972C220.357 21.7065 219.228 22.7278 218.369 23.9591C217.49 25.2445 216.852 26.6775 216.486 28.1889C216.087 29.7742 215.885 31.4025 215.886 33.037C215.886 35.6796 216.166 37.905 216.727 39.7132C217.177 41.3135 217.963 42.8008 219.032 44.0774C219.942 45.14 221.11 45.9543 222.424 46.4432C223.737 46.919 225.124 47.1577 226.521 47.1481C227.862 47.1772 229.202 47.0366 230.507 46.7299C231.51 46.4745 232.476 46.0973 233.386 45.6068V37.9478C233.386 37.3321 233.452 36.7182 233.584 36.1167C233.733 35.4858 234.064 34.9118 234.536 34.4648C235.168 33.8927 235.927 33.4772 236.751 33.2521C238.034 32.9046 239.363 32.7485 240.692 32.7891V33.6852C240.102 33.6698 239.514 33.7714 238.963 33.9839C238.547 34.1561 238.193 34.4485 237.946 34.8233C237.697 35.225 237.538 35.6753 237.48 36.1436C237.403 36.7209 237.366 37.3027 237.369 37.8851V46.1713C235.817 47.1214 234.13 47.8343 232.365 48.2862C230.452 48.7473 228.489 48.969 226.521 48.9464C224.426 48.9704 222.35 48.5498 220.431 47.7127C218.626 46.9196 217.005 45.7644 215.67 44.3193C214.324 42.8491 213.271 41.1367 212.569 39.2741C211.822 37.295 211.447 35.1959 211.465 33.0818C211.446 31.0799 211.767 29.0892 212.416 27.1942C213.007 25.4374 213.939 23.8134 215.16 22.4148C216.365 21.0592 217.844 19.9712 219.5 19.2216C221.293 18.422 223.239 18.0233 225.203 18.0536C227.889 18.0536 230.133 18.3991 231.936 19.0901C233.739 19.7812 235.04 20.6106 235.838 21.5784C236.125 21.9404 236.343 22.3514 236.481 22.7912C236.645 23.285 236.757 23.7946 236.814 24.3116C236.871 24.8403 236.907 25.384 236.925 25.9426C236.943 26.5012 236.946 27.0299 236.946 27.5287H236.045C235.485 24.9718 234.43 23.0471 232.879 21.7546C231.328 20.4622 229.209 19.819 226.521 19.825Z" fill="white"/>
<path d="M253.179 34.5874H250.078V48.0294H246.095V24.231C246.136 23.1395 245.946 22.0515 245.537 21.0378C245.167 20.2293 244.318 19.825 242.991 19.825H242.106V18.9438H253.62C254.731 18.9557 255.84 19.0365 256.94 19.1858C258.202 19.3459 259.429 19.7101 260.572 20.2642C261.724 20.8243 262.726 21.6484 263.496 22.6688C264.296 23.7123 264.697 25.1152 264.697 26.8776C264.729 27.9866 264.502 29.0879 264.033 30.0947C263.624 30.9318 263.043 31.6746 262.328 32.2753C261.64 32.8457 260.862 33.2998 260.026 33.6195C259.244 33.9247 258.442 34.1752 257.625 34.3693L262.277 42.082C262.75 42.8925 263.274 43.6717 263.847 44.415C264.274 44.9696 264.757 45.4791 265.288 45.9354C265.707 46.3008 266.186 46.5918 266.705 46.7957C267.204 46.9793 267.724 47.0978 268.254 47.1482V48.0294C267.907 48.1761 267.543 48.2765 267.17 48.3281C266.651 48.4205 266.124 48.4655 265.597 48.4625C264.871 48.4719 264.147 48.3711 263.451 48.1638C262.746 47.9392 262.091 47.58 261.524 47.1064C260.82 46.5216 260.188 45.8558 259.642 45.1229C258.907 44.1524 258.234 43.1379 257.625 42.085L253.179 34.5874ZM253.401 33.046C254.115 33.0307 254.823 32.9119 255.502 32.6935C256.3 32.4509 257.054 32.086 257.739 31.6122C258.466 31.1134 259.079 30.4682 259.54 29.7184C260.05 28.8599 260.304 27.8745 260.272 26.8776C260.302 25.845 260.049 24.8238 259.54 23.9234C259.089 23.1417 258.475 22.4654 257.739 21.9399C257.058 21.4551 256.303 21.0829 255.502 20.8377C254.823 20.6207 254.115 20.502 253.401 20.4852C252.815 20.4871 252.231 20.532 251.651 20.6196C251.122 20.6893 250.597 20.7891 250.078 20.9183V32.6039C250.597 32.7333 251.122 32.833 251.651 32.9026C252.23 32.9918 252.815 33.0397 253.401 33.046Z" fill="white"/>
<path d="M269.784 33.488C269.773 31.4358 270.1 29.3955 270.751 27.4481C271.336 25.6506 272.263 23.9822 273.482 22.5343C274.675 21.1412 276.156 20.0205 277.823 19.2485C279.617 18.4644 281.555 18.0596 283.514 18.0596C285.473 18.0596 287.411 18.4644 289.205 19.2485C290.872 20.0212 292.353 21.1418 293.546 22.5343C294.769 23.9813 295.701 25.6497 296.289 27.4481C296.936 29.3962 297.259 31.4364 297.244 33.488C297.262 35.5458 296.94 37.5926 296.289 39.5459C295.698 41.3368 294.767 42.9979 293.546 44.4388C292.353 45.8313 290.872 46.9519 289.205 47.7246C287.411 48.5087 285.473 48.9135 283.514 48.9135C281.555 48.9135 279.617 48.5087 277.823 47.7246C276.156 46.9526 274.675 45.8319 273.482 44.4388C272.266 42.9969 271.338 41.3358 270.751 39.5459C270.096 37.5933 269.77 35.5465 269.784 33.488ZM292.813 33.488C292.836 31.5771 292.62 29.6707 292.171 27.8125C291.812 26.2786 291.19 24.8175 290.334 23.4932C289.596 22.3599 288.593 21.422 287.41 20.76C286.205 20.1358 284.867 19.81 283.508 19.81C282.15 19.81 280.811 20.1358 279.606 20.76C278.423 21.422 277.42 22.3599 276.682 23.4932C275.826 24.8175 275.204 26.2786 274.845 27.8125C274.396 29.6707 274.18 31.5771 274.203 33.488C274.18 35.399 274.396 37.3055 274.845 39.1636C275.204 40.6975 275.826 42.1586 276.682 43.4829C277.418 44.6176 278.422 45.556 279.606 46.2161C280.811 46.8403 282.15 47.1661 283.508 47.1661C284.867 47.1661 286.205 46.8403 287.41 46.2161C288.594 45.556 289.598 44.6176 290.334 43.4829C291.193 42.1522 291.814 40.6838 292.171 39.1427C292.618 37.2913 292.834 35.3921 292.813 33.488Z" fill="white"/>
<path d="M303.664 24.2309C303.706 23.1395 303.517 22.0516 303.109 21.0377C302.741 20.2292 301.892 19.8249 300.564 19.8249H299.663V18.9437H303.649C304.297 18.9309 304.945 18.9971 305.577 19.1408C306.069 19.2577 306.506 19.538 306.816 19.9354C307.16 20.4192 307.381 20.9789 307.459 21.5664C307.59 22.4484 307.649 23.3394 307.636 24.2309V36.7917C307.62 38.1897 307.753 39.5855 308.032 40.9557C308.253 42.0722 308.706 43.1303 309.362 44.0623C309.976 44.9137 310.804 45.5902 311.763 46.0249C312.931 46.5165 314.193 46.7499 315.461 46.7089C316.907 46.7478 318.347 46.5231 319.711 46.0458C320.818 45.6399 321.787 44.9292 322.503 43.9966C323.262 42.9559 323.775 41.7582 324.004 40.4927C324.334 38.8395 324.494 37.157 324.481 35.4714V18.9437H326.252V35.4714C326.275 37.3744 326.112 39.2752 325.766 41.1469C325.507 42.6224 324.908 44.018 324.016 45.2243C323.121 46.3501 321.923 47.1987 320.561 47.6708C319.098 48.2144 317.231 48.4863 314.96 48.4863C312.805 48.4863 311.004 48.2144 309.557 47.6708C308.195 47.1873 306.993 46.3411 306.081 45.2243C305.157 44.0236 304.521 42.6291 304.22 41.1469C303.827 39.281 303.641 37.3777 303.667 35.4714L303.664 24.2309Z" fill="white"/>
<path d="M338.385 48.0294H334.387V24.231C334.429 23.1397 334.239 22.0517 333.831 21.0378C333.461 20.2293 332.613 19.825 331.286 19.825H330.385V18.9438H341.9C343.011 18.9562 344.12 19.0441 345.22 19.2067C346.489 19.384 347.718 19.7792 348.852 20.3747C350.043 21.0041 351.055 21.9214 351.796 23.0422C352.597 24.2191 352.997 25.7913 352.997 27.7588C353.026 28.8636 352.838 29.9633 352.445 30.9969C352.111 31.8366 351.623 32.6066 351.004 33.2671C350.433 33.8678 349.768 34.3722 349.035 34.7606C348.347 35.129 347.619 35.4176 346.865 35.6209C346.196 35.8009 345.515 35.9337 344.827 36.0182C344.305 36.0833 343.78 36.1202 343.254 36.1287H338.385V48.0294ZM341.705 34.5874C342.419 34.572 343.127 34.4533 343.806 34.2349C344.621 33.982 345.38 33.5765 346.042 33.04C346.869 32.3843 347.528 31.5437 347.967 30.5866C348.406 29.6295 348.611 28.5828 348.567 27.5318C348.611 26.4808 348.406 25.4341 347.967 24.477C347.528 23.5199 346.869 22.6793 346.042 22.0236C345.379 21.4884 344.621 21.083 343.806 20.8287C343.126 20.6118 342.419 20.4931 341.705 20.4762C341.119 20.4781 340.534 20.5231 339.955 20.6107C339.426 20.6804 338.902 20.7801 338.385 20.9094V34.1483C338.902 34.2775 339.426 34.3773 339.955 34.447C340.534 34.5366 341.119 34.5835 341.705 34.5874Z" fill="white"/>
</svg>
