<svg width="173" height="34" viewBox="0 0 173 34" fill="none" xmlns="http://www.w3.org/2000/svg">
<path d="M14.5927 17.1086C14.5066 17.3163 14.4334 17.5295 14.3736 17.7468C14.3044 17.9696 14.2088 18.1834 14.1396 18.4077C14.0682 18.6703 13.9823 18.9284 13.8822 19.1808C13.6998 19.5931 13.6027 20.0342 13.4409 20.4511C13.335 20.7103 13.2938 20.9968 13.1776 21.253C12.9981 21.6653 12.8981 22.1064 12.7362 22.5233C12.6333 22.784 12.5891 23.069 12.47 23.3221C12.389 23.5009 12.323 23.6865 12.2728 23.8769C12.2243 24.0709 12.1257 24.2422 12.0787 24.4347C12.017 24.7002 11.9323 24.9595 11.8256 25.2093C11.6432 25.6216 11.5461 26.0643 11.3843 26.4796C11.2784 26.7403 11.2372 27.0253 11.121 27.2815C10.94 27.6938 10.8415 28.1349 10.6797 28.5518C10.5752 28.8125 10.5326 29.096 10.4163 29.3537C10.2383 29.766 10.1383 30.2071 9.97502 30.624C9.89411 30.8225 9.86322 31.0438 9.77348 31.2303C9.58666 31.6411 9.48956 32.0822 9.33216 32.5021C9.17475 32.922 9.02323 33.3995 8.87024 33.8542H23.3221C23.2648 33.689 23.2103 33.5314 23.1574 33.3737C23.072 33.116 23.0103 32.8477 22.8999 32.6006C22.716 32.1898 22.6204 31.7472 22.4586 31.3303C22.3527 31.0711 22.3115 30.7861 22.1953 30.53C22.0158 30.1161 21.9172 29.675 21.754 29.2582C21.6731 29.0596 21.6392 28.8398 21.5539 28.6443C21.4679 28.4363 21.3942 28.2232 21.3332 28.0061C21.2656 27.7833 21.1699 27.5695 21.0993 27.3452C21.0291 27.0824 20.9436 26.8243 20.8434 26.5721C20.6595 26.1598 20.5639 25.7187 20.402 25.3018C20.2961 25.0426 20.2549 24.7561 20.1387 24.4999C19.9578 24.0876 19.8577 23.6465 19.6974 23.2296C19.5944 22.9689 19.5503 22.6839 19.4311 22.4308C19.3495 22.2523 19.2835 22.0666 19.234 21.876C19.1855 21.682 19.0869 21.5107 19.0398 21.3182C18.9781 21.0527 18.8935 20.7934 18.7868 20.5436C18.6029 20.1312 18.5073 19.6886 18.3455 19.2733C18.241 19.0125 18.1984 18.7276 18.0836 18.4714C17.9027 18.0591 17.8041 17.618 17.6423 17.2011C17.5378 16.9404 17.4952 16.6569 17.379 16.3992C17.1995 15.9869 17.1009 15.5458 16.9376 15.1289C16.8582 14.9304 16.8244 14.709 16.7376 14.5226C16.614 14.2467 16.5449 13.9542 16.4434 13.6722C16.3248 13.3752 16.2226 13.0716 16.1374 12.7627C16.1097 12.8933 16.0723 13.0215 16.0256 13.1462C15.8329 13.554 15.7446 13.9996 15.5842 14.4165C15.4798 14.6757 15.4371 14.9607 15.3209 15.2169C15.1415 15.6307 15.0429 16.0718 14.8796 16.4887C14.7104 16.6933 14.6781 16.9131 14.5927 17.1086Z" fill="#22B6C7"/>
<path d="M0.362861 2.1082C0.498923 2.25631 0.62062 2.41775 0.726218 2.59024C0.93364 2.88432 1.08516 3.21022 1.27052 3.51491C1.54612 3.983 1.79183 4.4691 2.00606 4.97012C2.22231 5.4552 2.43708 5.94178 2.63421 6.43747C2.75778 6.74064 2.89753 7.05745 3.0211 7.3682C3.19469 7.81083 3.36092 8.258 3.5301 8.70366C3.7081 9.17509 3.88316 9.64955 4.0641 10.1195C4.18767 10.4423 4.30683 10.7667 4.41863 11.0942C4.49365 11.3155 4.58927 11.5292 4.65547 11.7551C4.69961 11.9067 4.77316 12.0491 4.81141 12.2098C4.84966 12.3705 4.93351 12.5221 4.985 12.6828C5.12328 13.1011 5.27921 13.5104 5.41308 13.9318C5.48075 14.1531 5.56019 14.3729 5.63815 14.5958C5.71612 14.8186 5.79262 15.0384 5.875 15.2567C5.99268 15.572 6.07654 15.9009 6.19717 16.2147C6.38105 16.6952 6.5414 17.1848 6.69145 17.6775C6.94595 18.5021 7.23133 19.3161 7.47701 20.1438C7.58881 20.5197 7.72562 20.8896 7.8433 21.2655C7.96099 21.6414 8.07721 22.0234 8.19195 22.3978C8.36701 22.9799 8.57002 23.5544 8.7436 24.1396C8.82746 24.4185 8.91866 24.6944 9.00252 24.9733C9.13197 25.4023 9.25848 25.8312 9.38794 26.2678C9.46738 26.0177 9.53505 25.7752 9.62184 25.5357C9.79543 25.0415 9.94401 24.5382 10.1191 24.0441C10.2941 23.5499 10.4515 23.0269 10.6104 22.5176C10.7104 22.1962 10.8164 21.8749 10.9326 21.5596C11.0488 21.2443 11.1488 20.9381 11.2386 20.6258C11.3283 20.3136 11.4445 19.9801 11.5548 19.6617C11.6269 19.451 11.7019 19.2373 11.7696 19.0251C11.8373 18.8129 11.9005 18.59 11.9712 18.3793C12.0844 18.0428 12.1889 17.7017 12.3095 17.3667C12.4301 17.0317 12.5258 16.6876 12.6273 16.3451C12.7288 16.0025 12.8597 15.672 12.973 15.3355C13.0862 14.999 13.1789 14.6943 13.2951 14.3775C13.4113 14.0607 13.5158 13.7408 13.6114 13.4164C13.8527 12.5979 14.1336 11.793 14.4029 10.9911C14.5735 10.4757 14.7441 9.95879 14.9001 9.43885C14.9312 9.32387 14.9255 9.2016 14.8839 9.0902C14.8368 8.94923 14.7942 8.80522 14.7368 8.66577C14.6059 8.33531 14.4985 7.99576 14.3734 7.66379C14.2837 7.42732 14.1601 7.20903 14.0792 6.96347C13.9689 6.59512 13.835 6.23434 13.6923 5.88115C13.5364 5.49916 13.4275 5.102 13.251 4.72607C13.1768 4.56517 13.1168 4.39776 13.0715 4.22584C12.9868 3.93777 12.878 3.65781 12.7464 3.38909C12.5576 2.96248 12.3098 2.56628 12.0109 2.21279C11.6453 1.75919 11.2211 1.35933 10.7502 1.02437C10.5246 0.860379 10.2848 0.718292 10.0337 0.599931C9.71962 0.446766 9.39141 0.326413 9.054 0.240675C8.76524 0.160831 8.46964 0.110065 8.17135 0.0890897C5.56754 0.0759523 2.95392 0.0708995 0.330497 0.0739312C0.244206 0.0587719 0.155587 0.066599 0.0730582 0.0966689C0.0730582 0.52717 0.0862979 0.953124 0.0730582 1.37756C0.0634486 1.51412 0.0846059 1.65113 0.134878 1.77787C0.18515 1.90462 0.263176 2.01767 0.362861 2.1082Z" fill="#22B6C7"/>
<path d="M0.13197 29.1902C0.187871 29.6662 0.392351 30.0921 0.573294 30.5196C0.776821 30.9722 1.04454 31.3911 1.36768 31.7626C1.656 32.1024 1.97466 32.4135 2.31947 32.6918C2.53424 32.8646 3.46397 33.4164 3.76554 33.5013C4.06711 33.5862 4.3422 33.6877 4.63936 33.759C4.93652 33.8302 5.24986 33.8302 5.54113 33.9348C5.93097 33.8893 6.31051 34.003 6.69887 34C6.92983 34 7.1402 33.8817 7.38734 33.9196C7.29613 33.862 7.3432 33.7681 7.31525 33.6907C7.19463 33.3982 7.08135 33.0996 6.98573 32.7979C6.86952 32.4311 6.71358 32.0809 6.61208 31.708C6.56942 31.5564 6.49145 31.3958 6.44585 31.232C6.40024 31.0683 6.32375 30.9198 6.26932 30.7591C6.13251 30.3513 5.9751 29.9511 5.82799 29.5464C5.75738 29.3524 5.68971 29.1584 5.62204 28.9643C5.48376 28.5672 5.34695 28.1685 5.2072 27.7714C5.11158 27.4985 5.0086 27.2272 4.91298 26.9543C4.76587 26.5572 4.63789 26.1585 4.49814 25.7613C4.40252 25.487 4.29954 25.2171 4.20392 24.9428C4.06417 24.5456 3.92883 24.1485 3.78908 23.7513C3.69346 23.477 3.59048 23.2071 3.49486 22.9328C3.35511 22.5356 3.21977 22.1369 3.08001 21.7398C2.98439 21.4669 2.88142 21.1956 2.7858 20.9227C2.67694 20.6196 2.58132 20.2997 2.46363 19.995C2.40626 19.8435 2.35036 19.6995 2.30623 19.5403C2.26209 19.3811 2.18707 19.228 2.13264 19.0673C2.01054 18.7051 1.86784 18.3488 1.7531 17.982C1.70455 17.8304 1.6413 17.6788 1.59717 17.5272C1.55303 17.3757 1.47507 17.215 1.42358 17.0543C1.31031 16.6981 1.19262 16.3388 1.05581 15.9932C0.861626 15.4884 0.692451 14.9624 0.498269 14.447C0.339392 14.0272 0.183458 13.6027 0.0142834 13.1768V28.2958C-0.00775284 28.4469 -0.00426898 28.6008 0.024581 28.7506C0.080482 28.8946 0.0304653 29.0613 0.13197 29.1902Z" fill="#22B6C7"/>
<path d="M32.5736 11.3698C32.4383 11.5214 32.4265 11.7336 32.3545 11.9155C32.2769 12.0958 32.2173 12.2837 32.1765 12.4764C32.1264 12.6682 32.062 12.8557 31.9837 13.0372C31.7528 13.7694 31.4968 14.4924 31.2614 15.2231C31.1511 15.5626 31.0202 15.8931 30.9172 16.2341C30.826 16.5373 30.7377 16.8496 30.623 17.1437C30.5082 17.4377 30.4347 17.7121 30.3288 17.994C30.2229 18.276 30.1361 18.561 30.0346 18.8429C29.8875 19.2658 29.7815 19.7115 29.6124 20.1238C29.3917 20.6619 29.2505 21.2258 29.0416 21.767C28.8327 22.3082 28.665 22.9039 28.462 23.4678C28.3046 23.9089 28.1795 24.3621 28.0206 24.8032C27.8912 25.1761 27.7588 25.546 27.6617 25.928C27.5264 26.0796 27.5146 26.2918 27.4425 26.4737C27.365 26.654 27.3053 26.8419 27.2645 27.0346C27.2138 27.2262 27.1494 27.4136 27.0718 27.5954C26.9705 27.9762 26.8497 28.3511 26.7099 28.7187C26.4878 29.2568 26.3569 29.8237 26.1377 30.3619C25.9317 30.8621 25.7875 31.3896 25.614 31.902C25.3933 32.5523 25.1726 33.2026 24.9637 33.862H32.6766C32.6928 33.6179 32.709 11.5123 32.6913 11.0621C32.6913 11.0621 32.6796 11.0454 32.6722 11.0408C32.6398 11.0166 32.6634 11.0803 32.6369 11.0408C32.6972 11.1742 32.5442 11.2515 32.5736 11.3698Z" fill="#22B6C7"/>
<path d="M16.1506 1.247C16.4683 1.69505 16.763 2.16005 17.0332 2.64006C17.2436 2.99477 17.4451 3.35554 17.6217 3.72693C17.8526 4.20594 18.0865 4.68343 18.3042 5.17002C18.5587 5.74149 18.8059 6.31751 19.0707 6.88293C19.1604 7.07847 19.2413 7.28008 19.3237 7.47562C19.4225 7.68722 19.5084 7.90491 19.5811 8.12744C19.6514 8.35062 19.738 8.56801 19.84 8.77774C20.0445 9.23249 20.2196 9.68725 20.3902 10.1556C20.5609 10.624 20.7212 11.0924 20.8963 11.5548C21.1199 12.149 21.3288 12.7493 21.5509 13.345C21.698 13.73 21.8319 14.1181 21.9687 14.5061C22.0305 14.6835 22.0658 14.8715 22.1393 15.0427C22.3644 15.5672 22.5071 16.122 22.7028 16.6586C22.9396 17.2998 23.1441 17.9532 23.3456 18.6065C23.5192 19.1719 23.7134 19.7298 23.8855 20.2936C24.0576 20.8575 24.2548 21.3775 24.396 21.9353C24.4666 22.2157 24.5813 22.4856 24.6564 22.766C24.7844 23.2389 24.9506 23.6967 25.0786 24.1697C25.1076 24.337 25.1653 24.4977 25.2492 24.6441C25.236 24.9033 25.3963 25.114 25.4316 25.3596C25.4669 25.6052 25.5979 25.8219 25.6288 26.1175C25.7847 25.6203 25.923 25.1717 26.0701 24.7245C26.1525 24.4653 26.2437 24.2091 26.3202 23.9484C26.4084 23.6452 26.5158 23.342 26.6144 23.0388C26.7129 22.7357 26.81 22.4128 26.9086 22.099C27.0557 21.6443 27.1837 21.1895 27.3308 20.7257C27.4779 20.2618 27.6456 19.8025 27.7721 19.3296C27.8604 18.9946 28.0031 18.6762 28.0972 18.3427C28.3061 17.6106 28.5871 16.9042 28.7739 16.1645C28.8666 15.8022 28.9916 15.446 29.1137 15.0913C29.2726 14.6314 29.4251 14.1696 29.5712 13.7058C29.7184 13.2313 29.8816 12.7599 30.0126 12.2778C30.1832 11.6457 30.4259 11.0348 30.6275 10.4103C30.854 9.71605 31.0688 9.01573 31.2924 8.31995C31.4998 7.67723 31.7146 7.03906 31.9235 6.39785C32.1206 5.79151 32.3236 5.18517 32.5046 4.57883C32.5568 4.35771 32.5568 4.12692 32.5046 3.9058C32.4532 3.68589 32.3838 3.47088 32.2972 3.26308C32.1722 2.94807 32.0149 2.64774 31.8279 2.36721C31.6482 2.11935 31.4462 1.88945 31.2247 1.68053C30.8604 1.31533 30.4449 1.00872 29.992 0.771021C29.6801 0.590635 29.3315 0.501199 29.0211 0.316266C28.7268 0.316266 28.4709 0.155586 28.1796 0.119205C27.9913 0.0949518 27.7957 0.0540238 27.6059 0.0191593C27.4001 -0.00286394 27.1928 -0.00590773 26.9866 0.0100642H15.2709V0.295044C15.3437 0.315555 15.4082 0.359668 15.4548 0.420859C15.7049 0.679415 15.9374 0.955451 16.1506 1.247Z" fill="#22B6C7"/>
<path d="M48.1186 12.2294C47.993 11.8666 47.8456 11.5122 47.6773 11.1683C47.5549 10.9086 47.3925 10.671 47.1963 10.4649C47.0165 10.2861 46.8019 10.1487 46.5667 10.0617C46.2966 9.96587 46.0158 9.90577 45.7311 9.88284V9.43415C45.7885 9.43415 45.9017 9.42657 46.0665 9.41141C46.2312 9.39625 46.3681 9.38867 46.4681 9.38867C46.7917 9.39071 47.1147 9.41705 47.4346 9.4675C47.7899 9.52608 48.1319 9.6509 48.4438 9.83585C48.8103 10.0604 49.1339 10.3522 49.3985 10.6968C49.7441 11.1565 50.0085 11.6753 50.1796 12.2294L53.088 20.8697L55.4108 13.7801L54.89 12.237C54.7668 11.8744 54.6218 11.52 54.4561 11.1759C54.3321 10.9129 54.1671 10.6728 53.9677 10.4649C53.7878 10.2861 53.5732 10.1487 53.338 10.0617C53.068 9.96572 52.7872 9.90561 52.5025 9.88284V9.43415C52.5598 9.43415 52.6716 9.42657 52.8393 9.41141C53.007 9.39625 53.1336 9.38867 53.2409 9.38867C53.5641 9.39077 53.8866 9.41712 54.206 9.4675C54.5613 9.52608 54.9033 9.6509 55.2151 9.83585C55.5817 10.0604 55.9053 10.3522 56.1699 10.6968C56.5155 11.1565 56.7799 11.6753 56.951 12.2294L59.8593 20.8697L63.5709 9.6206H64.5035L59.5342 24.5972H59.1003L55.8874 15.1822L52.7628 24.5972H52.3289L48.1186 12.2294Z" fill="#22B6C7"/>
<path d="M78.1552 24.3733C77.8725 24.4527 77.5803 24.4905 77.2873 24.4854C76.9999 24.481 76.7135 24.451 76.4311 24.396C76.0785 24.3267 75.7405 24.1944 75.4322 24.0049C75.0539 23.7696 74.7163 23.471 74.4334 23.1212C74.0684 22.6618 73.7855 22.1393 73.5978 21.578L73.055 20.1243H66.9779L65.2421 24.3687H64.2653L70.3423 9.60889H70.994L75.7691 21.5735C75.9427 21.9919 76.1045 22.3451 76.2575 22.6346C76.388 22.8971 76.56 23.1353 76.7665 23.3395C76.9439 23.51 77.1497 23.6461 77.374 23.7412C77.6248 23.8388 77.8879 23.8991 78.1552 23.92V24.3733ZM67.3045 19.23H72.621L70.0231 12.7391L67.3045 19.23Z" fill="#22B6C7"/>
<path d="M83.557 9.61328C84.1845 9.6173 84.8112 9.65829 85.4341 9.73606C86.0951 9.8099 86.7405 9.99101 87.3465 10.2727C87.9213 10.5417 88.4256 10.9481 88.8176 11.4581C89.2148 11.9724 89.4134 12.6622 89.4134 13.5272C89.4087 14.2117 89.1707 14.8727 88.7411 15.3947C88.2929 15.9677 87.5765 16.426 86.5919 16.7696C87.1934 16.8572 87.7811 17.0264 88.3395 17.2729C88.7529 17.4568 89.1272 17.7226 89.4413 18.055C89.7099 18.3501 89.907 18.7064 90.0165 19.0949C90.1271 19.5029 90.1811 19.925 90.1769 20.3485C90.1769 21.1822 89.9915 21.8644 89.6238 22.3934C89.2602 22.9183 88.7753 23.3413 88.213 23.6243C87.6072 23.9256 86.9586 24.1257 86.2918 24.217C85.6018 24.3184 84.9057 24.369 84.2087 24.3686H79.8705V12.2963C79.8907 11.7427 79.7985 11.1907 79.5998 10.6759C79.4174 10.2651 79.0026 10.0605 78.3509 10.0605H77.9095V9.61328H83.557ZM83.8821 16.4346C84.3121 16.4352 84.7398 16.3709 85.1517 16.2436C85.5513 16.124 85.9265 15.9309 86.2594 15.6736C86.5839 15.4206 86.8535 15.1005 87.0508 14.7338C87.2619 14.329 87.3668 13.8744 87.3554 13.415C87.3688 12.929 87.2402 12.4499 86.9861 12.0402C86.7431 11.6626 86.4252 11.3423 86.0534 11.1003C85.6659 10.8499 85.2402 10.6685 84.7942 10.5637C84.0723 10.3801 83.3223 10.3461 82.5876 10.4637C82.3285 10.499 82.0716 10.5497 81.8182 10.6153V16.4346H83.8821ZM81.8226 17.329V23.2771C82.1594 23.383 82.5037 23.4616 82.8524 23.5121C83.1933 23.5638 83.5375 23.5902 83.8821 23.5909C85.1983 23.5909 86.2148 23.3226 86.9317 22.786C87.6486 22.2494 88.0065 21.4738 88.0056 20.4592C88.0056 19.4486 87.6584 18.6735 86.964 18.1339C86.2697 17.5942 85.2424 17.3259 83.8821 17.329H81.8226Z" fill="#22B6C7"/>
<path d="M93.0013 9.61328H94.9534V21.6901C94.9329 22.2439 95.0256 22.796 95.2256 23.3105C95.406 23.7208 95.8219 23.9259 96.4731 23.9259H96.9144V24.3731H94.9534C94.6363 24.3796 94.3196 24.346 94.0105 24.2731C93.7691 24.2144 93.5546 24.0721 93.4029 23.8698C93.2341 23.629 93.126 23.3488 93.0881 23.0543C93.0223 22.6029 92.9933 22.1465 93.0013 21.6901V9.61328Z" fill="#22B6C7"/>
<path d="M111.015 10.0604C110.186 10.0354 109.366 10.2362 108.637 10.6424C107.994 11.0152 107.44 11.5334 107.019 12.1583C106.589 12.8106 106.276 13.5378 106.097 14.3047C105.901 15.1092 105.802 15.9355 105.803 16.765C105.803 18.106 105.94 19.2353 106.215 20.1529C106.435 20.965 106.82 21.7197 107.344 22.3675C107.79 22.9068 108.363 23.32 109.007 23.5681C109.65 23.8096 110.33 23.9307 111.015 23.9258C111.672 23.9406 112.328 23.8693 112.968 23.7136C113.459 23.584 113.933 23.3926 114.379 23.1437V19.257C114.379 18.9446 114.412 18.6331 114.476 18.3278C114.549 18.0076 114.711 17.7164 114.942 17.4895C115.252 17.1992 115.624 16.9884 116.028 16.8741C116.657 16.6978 117.308 16.6186 117.96 16.6391V17.0939C117.67 17.0861 117.382 17.1376 117.112 17.2455C116.908 17.3329 116.735 17.4812 116.614 17.6714C116.492 17.8753 116.414 18.1038 116.386 18.3414C116.348 18.6344 116.33 18.9297 116.331 19.2252V23.4302C115.57 23.9123 114.744 24.274 113.879 24.5034C112.941 24.7373 111.979 24.8499 111.015 24.8384C109.988 24.8506 108.97 24.6371 108.03 24.2123C107.145 23.8099 106.351 23.2236 105.697 22.4903C105.037 21.7442 104.521 20.8753 104.177 19.9301C103.811 18.9258 103.627 17.8605 103.636 16.7877C103.626 15.7718 103.784 14.7616 104.102 13.8C104.392 12.9084 104.848 12.0843 105.447 11.3746C106.038 10.6867 106.762 10.1346 107.574 9.75416C108.452 9.34839 109.406 9.14607 110.369 9.16146C111.685 9.16146 112.785 9.33679 113.669 9.68746C114.552 10.0381 115.19 10.459 115.581 10.9502C115.721 11.1339 115.828 11.3424 115.896 11.5656C115.976 11.8162 116.031 12.0748 116.059 12.3372C116.087 12.6055 116.105 12.8814 116.113 13.1648C116.122 13.4483 116.124 13.7166 116.124 13.9697H115.682C115.408 12.6722 114.891 11.6955 114.13 11.0396C113.37 10.3837 112.332 10.0573 111.015 10.0604Z" fill="#22B6C7"/>
<path d="M124.079 17.5518H122.56V24.3731H120.608V12.2963C120.628 11.7424 120.534 11.1903 120.334 10.6759C120.153 10.2656 119.737 10.0605 119.087 10.0605H118.653V9.61328H124.296C124.84 9.61928 125.383 9.66028 125.923 9.73606C126.541 9.81728 127.142 10.0021 127.703 10.2833C128.267 10.5675 128.758 10.9857 129.136 11.5035C129.528 12.0331 129.724 12.745 129.724 13.6394C129.74 14.2022 129.628 14.761 129.399 15.2719C129.198 15.6967 128.914 16.0736 128.563 16.3785C128.226 16.6679 127.845 16.8984 127.435 17.0607C127.052 17.2155 126.658 17.3426 126.258 17.4411L128.538 21.3551C128.77 21.7663 129.027 22.1618 129.308 22.5389C129.517 22.8204 129.753 23.079 130.014 23.3105C130.219 23.4959 130.454 23.6436 130.708 23.7471C130.953 23.8402 131.208 23.9003 131.467 23.9259V24.3731C131.297 24.4475 131.119 24.4985 130.936 24.5247C130.682 24.5716 130.424 24.5944 130.165 24.5929C129.809 24.5976 129.455 24.5465 129.113 24.4413C128.768 24.3273 128.447 24.1451 128.169 23.9047C127.824 23.608 127.514 23.2701 127.247 22.8982C126.887 22.4057 126.557 21.8908 126.258 21.3566L124.079 17.5518ZM124.188 16.7696C124.538 16.7618 124.885 16.7016 125.218 16.5907C125.609 16.4676 125.979 16.2825 126.314 16.042C126.67 15.7889 126.971 15.4615 127.197 15.0809C127.447 14.6453 127.571 14.1453 127.556 13.6394C127.57 13.1154 127.446 12.5971 127.197 12.1402C126.976 11.7435 126.675 11.4003 126.314 11.1337C125.98 10.8876 125.61 10.6988 125.218 10.5743C124.885 10.4642 124.538 10.404 124.188 10.3955C123.901 10.3964 123.614 10.4192 123.331 10.4637C123.071 10.4991 122.814 10.5497 122.56 10.6153V16.5453C122.814 16.6109 123.071 16.6615 123.331 16.6968C123.614 16.7421 123.901 16.7664 124.188 16.7696Z" fill="#22B6C7"/>
<path d="M132.217 16.9939C132.212 15.9525 132.372 14.9171 132.691 13.9289C132.978 13.0167 133.432 12.1701 134.03 11.4353C134.614 10.7284 135.34 10.1596 136.157 9.76787C137.036 9.36999 137.986 9.16455 138.946 9.16455C139.906 9.16455 140.856 9.36999 141.735 9.76787C142.552 10.16 143.278 10.7287 143.862 11.4353C144.462 12.1696 144.919 13.0163 145.207 13.9289C145.524 14.9175 145.682 15.9528 145.675 16.9939C145.684 18.0382 145.526 19.0768 145.207 20.0681C144.917 20.9769 144.461 21.8198 143.862 22.551C143.278 23.2576 142.552 23.8263 141.735 24.2185C140.856 24.6163 139.906 24.8218 138.946 24.8218C137.986 24.8218 137.036 24.6163 136.157 24.2185C135.34 23.8267 134.614 23.258 134.03 22.551C133.433 21.8193 132.979 20.9764 132.691 20.0681C132.37 19.0772 132.21 18.0385 132.217 16.9939ZM143.504 16.9939C143.515 16.0242 143.409 15.0567 143.189 14.1138C143.013 13.3354 142.708 12.594 142.288 11.9219C141.927 11.3468 141.435 10.8708 140.856 10.5349C140.265 10.2182 139.609 10.0528 138.943 10.0528C138.277 10.0528 137.621 10.2182 137.031 10.5349C136.451 10.8708 135.96 11.3468 135.598 11.9219C135.178 12.594 134.874 13.3354 134.698 14.1138C134.478 15.0567 134.372 16.0242 134.383 16.9939C134.372 17.9637 134.477 18.9311 134.698 19.874C134.874 20.6524 135.178 21.3939 135.598 22.066C135.959 22.6418 136.451 23.118 137.031 23.453C137.621 23.7697 138.277 23.935 138.943 23.935C139.609 23.935 140.265 23.7697 140.856 23.453C141.436 23.118 141.928 22.6418 142.288 22.066C142.709 21.3906 143.014 20.6455 143.189 19.8634C143.408 18.924 143.514 17.9601 143.504 16.9939Z" fill="#22B6C7"/>
<path d="M148.821 12.2961C148.842 11.7423 148.749 11.1902 148.549 10.6757C148.369 10.2654 147.953 10.0603 147.302 10.0603H146.86V9.6131H148.814C149.132 9.60659 149.449 9.64019 149.759 9.71314C150 9.77245 150.214 9.91468 150.366 10.1164C150.535 10.3619 150.643 10.6459 150.681 10.944C150.745 11.3916 150.774 11.8438 150.768 12.2961V18.6703C150.76 19.3797 150.825 20.088 150.962 20.7834C151.07 21.3499 151.292 21.8869 151.614 22.3599C151.915 22.7919 152.321 23.1352 152.79 23.3558C153.363 23.6053 153.981 23.7237 154.603 23.7029C155.311 23.7226 156.017 23.6086 156.686 23.3664C157.228 23.1604 157.703 22.7998 158.054 22.3265C158.426 21.7984 158.677 21.1906 158.789 20.5484C158.951 19.7095 159.03 18.8557 159.023 18.0003V9.6131H159.891V18.0003C159.902 18.966 159.823 19.9306 159.653 20.8804C159.526 21.6291 159.233 22.3374 158.795 22.9495C158.357 23.5208 157.77 23.9515 157.102 24.191C156.385 24.4669 155.47 24.6048 154.357 24.6048C153.301 24.6048 152.418 24.4669 151.709 24.191C151.042 23.9457 150.452 23.5163 150.006 22.9495C149.553 22.3402 149.241 21.6326 149.094 20.8804C148.901 19.9335 148.81 18.9677 148.823 18.0003L148.821 12.2961Z" fill="#22B6C7"/>
<path d="M165.837 24.3731H163.878V12.2963C163.898 11.7425 163.806 11.1904 163.606 10.6759C163.424 10.2656 163.009 10.0605 162.358 10.0605H161.917V9.61328H167.56C168.105 9.61956 168.648 9.66413 169.187 9.74668C169.809 9.83664 170.411 10.0372 170.967 10.3394C171.551 10.6588 172.047 11.1243 172.41 11.693C172.802 12.2903 172.999 13.0881 172.999 14.0866C173.013 14.6472 172.921 15.2053 172.728 15.7297C172.565 16.1559 172.325 16.5466 172.022 16.8818C171.742 17.1866 171.416 17.4426 171.057 17.6397C170.72 17.8266 170.363 17.9731 169.993 18.0763C169.665 18.1676 169.331 18.235 168.994 18.2779C168.739 18.3109 168.481 18.3297 168.224 18.334H165.837V24.3731ZM167.464 17.5518C167.814 17.544 168.161 17.4837 168.494 17.3729C168.894 17.2446 169.266 17.0388 169.59 16.7666C169.995 16.4338 170.318 16.0072 170.533 15.5215C170.748 15.0358 170.849 14.5047 170.827 13.9713C170.849 13.438 170.748 12.9069 170.533 12.4212C170.318 11.9355 169.995 11.5089 169.59 11.1761C169.265 10.9045 168.893 10.6988 168.494 10.5698C168.161 10.4597 167.814 10.3994 167.464 10.3909C167.177 10.3919 166.891 10.4147 166.607 10.4591C166.348 10.4945 166.091 10.5451 165.837 10.6107V17.329C166.091 17.3946 166.348 17.4452 166.607 17.4805C166.891 17.526 167.177 17.5498 167.464 17.5518Z" fill="#22B6C7"/>
</svg>
