<svg width="500" height="393" viewBox="0 0 500 393" fill="none" xmlns="http://www.w3.org/2000/svg">
<path d="M63.5838 73.3985C59.7303 62.6103 55.8767 53.5559 52.0231 46.2353C48.1696 38.5294 43.738 32.3647 38.7283 27.7412C34.104 23.1177 28.5164 19.65 21.9653 17.3382C15.7996 15.0265 8.47784 13.4853 0 12.7147V1.15587C1.54143 1.15587 4.62428 0.963221 9.24856 0.577932C13.4875 0.192643 16.9557 0 19.6532 0C27.7457 0 36.2235 0.770594 45.0867 2.31177C54.3353 3.46764 63.3911 6.54998 72.2543 11.5588C81.1175 16.5676 89.5954 24.0809 97.6879 34.0985C105.78 43.7309 112.717 56.8309 118.497 73.3985L195.954 296.484L257.803 113.276L243.931 73.3985C240.077 62.6103 236.224 53.5559 232.37 46.2353C228.516 38.5294 224.085 32.3647 219.075 27.7412C214.451 23.1177 208.863 19.65 202.312 17.3382C196.146 15.0265 188.825 13.4853 180.347 12.7147V1.15587C181.888 1.15587 184.778 0.963221 189.017 0.577932C193.642 0.192643 197.303 0 200 0C208.092 0 216.57 0.770594 225.434 2.31177C234.682 3.46764 243.738 6.54998 252.601 11.5588C261.464 16.5676 269.942 24.0809 278.035 34.0985C286.127 43.7309 293.064 56.8309 298.844 73.3985L376.301 296.484L475.145 5.77941H500L367.63 393H356.069L270.52 149.687L187.283 393H175.723L63.5838 73.3985Z" fill="white"/>
</svg>
