<svg width="61" height="61" viewBox="0 0 61 61" fill="none" xmlns="http://www.w3.org/2000/svg">
<path fill-rule="evenodd" clip-rule="evenodd" d="M47.2629 7.5H36.9995V4.5H50.9995H52.4995V6V20H49.4995V9.51197L38.0709 20.4504L37.6359 20.8667H37.0337H21.3579L9.05568 33.0651L6.94336 30.9349L19.6841 18.3016L20.1227 17.8667H20.7403H36.4316L47.2629 7.5ZM19.9995 41H12.9995C11.8949 41 10.9995 41.8954 10.9995 43V54C10.9995 55.1046 11.8949 56 12.9995 56H19.9995V41ZM19.9995 38H12.9995C10.2381 38 7.99952 40.2386 7.99952 43V54C7.99952 56.7614 10.2381 59 12.9995 59H19.9995H22.9995H38.9995H41.9995H47.9995C50.7609 59 52.9995 56.7614 52.9995 54V43C52.9995 40.2386 50.7609 38 47.9995 38H41.9995H38.9995H22.9995H19.9995ZM38.9995 41H22.9995V56H38.9995V41ZM41.9995 56H47.9995C49.1041 56 49.9995 55.1046 49.9995 54V43C49.9995 41.8954 49.1041 41 47.9995 41H41.9995V56Z" fill="#22B6C7"/>
</svg>
