<svg width="61" height="61" viewBox="0 0 61 61" fill="none" xmlns="http://www.w3.org/2000/svg">
<path fill-rule="evenodd" clip-rule="evenodd" d="M51 5H11C9.89543 5 9 5.89543 9 7V54C9 55.1046 9.89543 56 11 56H51C52.1046 56 53 55.1046 53 54V7C53 5.89543 52.1046 5 51 5ZM11 2C8.23858 2 6 4.23858 6 7V54C6 56.7614 8.23858 59 11 59H51C53.7614 59 56 56.7614 56 54V7C56 4.23858 53.7614 2 51 2H11ZM33.3929 50.4644H13.375V47.4644H33.3929V50.4644ZM34.3939 15.7542C34.3939 17.8276 32.7131 19.5085 30.6397 19.5085C28.5663 19.5085 26.8854 17.8276 26.8854 15.7542C26.8854 13.6808 28.5663 12 30.6397 12C32.7131 12 34.3939 13.6808 34.3939 15.7542ZM37.3939 15.7542C37.3939 19.4845 34.3699 22.5085 30.6397 22.5085C26.9094 22.5085 23.8854 19.4845 23.8854 15.7542C23.8854 12.024 26.9094 9 30.6397 9C34.3699 9 37.3939 12.024 37.3939 15.7542ZM38.2553 29.7375C33.9584 25.4406 26.9916 25.4406 22.6947 29.7375L20.5734 27.6162C26.0419 22.1477 34.9081 22.1477 40.3766 27.6162L38.2553 29.7375ZM13.375 45.1965H33.3929V42.1965H13.375V45.1965ZM47 35H13V32H47V35ZM45.1429 45.7232C45.1429 46.6848 44.3633 47.4643 43.4018 47.4643C42.4402 47.4643 41.6607 46.6848 41.6607 45.7232C41.6607 44.7616 42.4402 43.9821 43.4018 43.9821C44.3633 43.9821 45.1429 44.7616 45.1429 45.7232ZM48.1429 45.7232C48.1429 48.3416 46.0202 50.4643 43.4018 50.4643C40.7834 50.4643 38.6607 48.3416 38.6607 45.7232C38.6607 43.1048 40.7834 40.9821 43.4018 40.9821C46.0202 40.9821 48.1429 43.1048 48.1429 45.7232Z" fill="#22B6C7"/>
</svg>
