<svg width="61" height="61" viewBox="0 0 61 61" fill="none" xmlns="http://www.w3.org/2000/svg">
<path fill-rule="evenodd" clip-rule="evenodd" d="M44.5228 4.39882C46.0661 4.09874 47.5 5.28069 47.5 6.85285V8.00016H26.0016L44.5228 4.39882ZM12.8063 8.00384L43.9502 1.45397C47.3454 0.793798 50.5 3.39409 50.5 6.85285V8.22906C52.5286 8.86619 54 10.7613 54 13.0002V54.0002C54 56.7616 51.7614 59.0002 49 59.0002H13C10.2386 59.0002 8 56.7616 8 54.0002V13.0002C8 10.3036 10.1346 8.10563 12.8063 8.00384ZM13 11.0002H49C50.1046 11.0002 51 11.8956 51 13.0002V54.0002C51 55.1047 50.1046 56.0002 49 56.0002H13C11.8954 56.0002 11 55.1047 11 54.0002V13.0002C11 11.8956 11.8954 11.0002 13 11.0002ZM40.8039 34.5385H22.082C22.2932 35.9787 22.8289 37.3134 23.6124 38.4661C28.2859 35.3087 34.4988 35.3976 39.0857 38.7326C39.9715 37.5211 40.5763 36.0911 40.8039 34.5385ZM40.7672 31.5385H22.1188C22.3342 30.2865 22.7956 29.1186 23.4515 28.0864C28.1984 31.3948 34.5964 31.3021 39.2508 27.8083C40.0045 28.9069 40.5322 30.1726 40.7672 31.5385ZM31.443 23.6923C33.5923 23.6923 35.5742 24.409 37.1628 25.6163C33.6686 28.0572 29.0208 28.126 25.4615 25.8225C27.0916 24.491 29.174 23.6923 31.443 23.6923ZM36.9112 40.8762C33.5305 38.658 29.151 38.5937 25.7123 40.6831C27.3028 41.8955 29.2888 42.6154 31.443 42.6154C33.4802 42.6154 35.3671 41.9715 36.9112 40.8762ZM31.443 45.6154C38.3253 45.6154 43.9045 40.0362 43.9045 33.1538C43.9045 26.2715 38.3253 20.6923 31.443 20.6923C24.5607 20.6923 18.9814 26.2715 18.9814 33.1538C18.9814 40.0362 24.5607 45.6154 31.443 45.6154Z" fill="#22B6C7"/>
</svg>
