<svg width="340" height="267" viewBox="0 0 340 267" fill="none" xmlns="http://www.w3.org/2000/svg">
<path d="M55.8308 264.388H37.0105L126.407 114.222H145.227L55.8308 264.388ZM38.0799 204.108C26.246 204.108 16.9071 200.061 10.0634 191.967C3.36229 183.731 0.0117188 172.442 0.0117188 158.1C0.0117188 143.616 3.43358 132.398 10.2773 124.446C17.121 116.352 26.3885 112.305 38.0799 112.305C49.9138 112.305 59.1813 116.423 65.8825 124.659C72.5836 132.753 75.9342 143.9 75.9342 158.1C75.9342 172.442 72.5836 183.731 65.8825 191.967C59.1813 200.061 49.9138 204.108 38.0799 204.108ZM38.0799 189.624C44.2107 189.624 48.987 187.068 52.4089 181.956C55.9733 176.702 57.7556 168.75 57.7556 158.1C57.7556 147.308 55.9733 139.427 52.4089 134.457C48.987 129.345 44.2107 126.789 38.0799 126.789C31.949 126.789 27.1014 129.345 23.537 134.457C20.1151 139.427 18.4042 147.308 18.4042 158.1C18.4042 168.892 20.1151 176.844 23.537 181.956C27.1014 187.068 31.949 189.624 38.0799 189.624ZM144.157 266.305C132.324 266.305 123.056 262.258 116.355 254.164C109.654 245.928 106.303 234.638 106.303 220.296C106.303 205.812 109.654 194.594 116.355 186.642C123.199 178.548 132.466 174.501 144.157 174.501C155.991 174.501 165.259 178.619 171.96 186.855C178.661 194.949 182.012 206.096 182.012 220.296C182.012 234.638 178.661 245.928 171.96 254.164C165.259 262.258 155.991 266.305 144.157 266.305ZM144.157 251.821C150.288 251.821 155.065 249.265 158.486 244.153C162.051 239.041 163.833 231.088 163.833 220.296C163.833 209.504 162.051 201.623 158.486 196.653C155.065 191.541 150.288 188.985 144.157 188.985C138.027 188.985 133.179 191.541 129.615 196.653C126.193 201.623 124.482 209.504 124.482 220.296C124.482 231.088 126.193 239.041 129.615 244.153C133.179 249.265 138.027 251.821 144.157 251.821Z" fill="#007E8C"/>
<path d="M43.1279 49.7931C40.514 42.4744 37.9002 36.3319 35.2864 31.3657C32.6726 26.1381 29.6667 21.956 26.2688 18.8194C23.1322 15.6829 19.3422 13.3304 14.8987 11.7621C10.7166 10.1939 5.75038 9.14833 0 8.62558V0.784135C1.04552 0.784135 3.13657 0.653443 6.27314 0.392065C9.14833 0.130688 11.5008 0 13.3304 0C18.8194 0 24.5698 0.522766 30.5816 1.56829C36.8547 2.35242 42.9972 4.44347 49.0089 7.84142C55.0207 11.2394 60.7711 16.3363 66.2601 23.1322C71.7491 29.6667 76.4539 38.5537 80.3747 49.7931L132.912 201.133L174.864 76.846L165.454 49.7931C162.84 42.4744 160.227 36.3319 157.613 31.3657C154.999 26.1381 151.993 21.956 148.595 18.8194C145.459 15.6829 141.668 13.3304 137.225 11.7621C133.043 10.1939 128.077 9.14833 122.326 8.62558V0.784135C123.372 0.784135 125.332 0.653443 128.207 0.392065C131.344 0.130688 133.827 0 135.657 0C141.146 0 146.896 0.522766 152.908 1.56829C159.181 2.35242 165.323 4.44347 171.335 7.84142C177.347 11.2394 183.097 16.3363 188.586 23.1322C194.075 29.6667 198.78 38.5537 202.701 49.7931L255.239 201.133L322.283 3.92071H339.142L249.357 266.609H241.516L183.489 101.547L127.031 266.609H119.19L43.1279 49.7931Z" fill="white"/>
</svg>
