<svg width="61" height="61" viewBox="0 0 61 61" fill="none" xmlns="http://www.w3.org/2000/svg">
<path fill-rule="evenodd" clip-rule="evenodd" d="M50 18.3737V51C50 53.7614 47.7614 56 45 56H16C13.2386 56 11 53.7614 11 51V10C11 7.23858 13.2386 5 16 5H34.6657C35.8118 5 36.923 5.39371 37.8135 6.11521L48.1478 14.4889C49.3194 15.4382 50 16.8657 50 18.3737ZM8 10C8 5.58172 11.5817 2 16 2H34.6657C36.4994 2 38.2774 2.62993 39.7021 3.78434L50.0364 12.158C51.911 13.677 53 15.9609 53 18.3737V51C53 55.4183 49.4183 59 45 59H16C11.5817 59 8 55.4183 8 51V10ZM39 19H20V16H39V19ZM39 27H20V24H39V27ZM20 35H39V32H20V35ZM23.5 50C24.3284 50 25 49.3284 25 48.5C25 47.6716 24.3284 47 23.5 47C22.6716 47 22 47.6716 22 48.5C22 49.3284 22.6716 50 23.5 50ZM23.5 53C25.9853 53 28 50.9853 28 48.5C28 46.0147 25.9853 44 23.5 44C21.0147 44 19 46.0147 19 48.5C19 50.9853 21.0147 53 23.5 53Z" fill="#22B6C7"/>
</svg>
